<?xml version="1.0" standalone="no"?>
<!DOCTYPE svg PUBLIC "-//W3C//DTD SVG 20010904//EN"
 "http://www.w3.org/TR/2001/REC-SVG-20010904/DTD/svg10.dtd">
<svg version="1.0" xmlns="http://www.w3.org/2000/svg"
 width="16.000000pt" height="16.000000pt" viewBox="0 0 16.000000 16.000000"
 preserveAspectRatio="xMidYMid meet">

<g transform="translate(0.000000,16.000000) scale(0.100000,-0.100000)"
fill="#000000" stroke="none">
<path d="M47 144 c-4 -4 -7 -18 -7 -31 0 -12 -4 -23 -10 -23 -17 0 -12 -77 6
-84 20 -8 68 -8 88 0 17 7 23 84 7 84 -5 0 -11 12 -13 28 -2 22 -9 28 -33 30
-17 2 -34 0 -38 -4z m61 -31 c3 -20 -1 -23 -27 -23 -23 0 -31 5 -31 18 0 25
10 33 35 30 12 -2 21 -12 23 -25z m20 -65 c-3 -32 -5 -33 -48 -33 -43 0 -45 1
-48 33 l-3 32 51 0 51 0 -3 -32z"/>
<path d="M70 55 c0 -8 5 -15 10 -15 6 0 10 7 10 15 0 8 -4 15 -10 15 -5 0 -10
-7 -10 -15z"/>
</g>
</svg>
